# xmcd CD database file
#
# Track frame offsets:
#	150
#	25614
#	67214
#	94798
#	118991
#	158566
#	184189
#	207657
#	229319
#	270893
#	293608
#
# Disc length: 4317 seconds
#
# Revision: 0
# Processed by: cddbd v1.5.2PL0 Copyright (c) Steve Scherf et al.
# Submitted via: CDex 1.51
#
DISCID=9b10db0b
DTITLE=The Bad Plus - Prog
DYEAR=2007
DGENRE=Jazz
TTITLE0=Everybody Wants to Rule the World
TTITLE1=Physical Cities
TTITLE2=Life on Mars
TTITLE3=Mint
TTITLE4=Giant
TTITLE5=Thriftstore Jewelry
TTITLE6=Tom Sawyer
TTITLE7=This Guy's In Love With You
TTITLE8=The World Is The Same
TTITLE9=1980 World Champion
TTITLE10=Narc
EXTD=YEAR: 2007
EXTT0=
EXTT1=
EXTT2=
EXTT3=
EXTT4=
EXTT5=
EXTT6=
EXTT7=
EXTT8=
EXTT9=
EXTT10=
PLAYORDER=
